inDegrees=yes
name=ik_Xsens_quaternion
DataType=double
version=3
OpenSimVersion=4.4-2022-07-23-0e9fedc
endheader
time	pelvis_tilt	pelvis_list	pelvis_rotation	pelvis_tx	pelvis_ty	pelvis_tz	hip_flexion_r	hip_adduction_r	hip_rotation_r	knee_angle_r	knee_angle_r_beta	ankle_angle_r	subtalar_angle_r	mtp_angle_r	hip_flexion_l	hip_adduction_l	hip_rotation_l	knee_angle_l	knee_angle_l_beta	ankle_angle_l	subtalar_angle_l	mtp_angle_l	lumbar_extension	lumbar_bending	lumbar_rotation	arm_flex_r	arm_add_r	arm_rot_r	elbow_flex_r	pro_sup_r	wrist_flex_r	wrist_dev_r	arm_flex_l	arm_add_l	arm_rot_l	elbow_flex_l	pro_sup_l	wrist_flex_l	wrist_dev_l
37.55	-28.04034720347595	-46.62174989010719	-60.01814069039207	0	0.93	0	44.31475211772674	-9.973910161925772	1.120119031536518e-11	60.27965322529205	1.052078420741765	-4.993631567474185	0	0	44.31475211771904	-9.973910161926105	3.443498446271635e-15	60.27965322529546	1.052078420741825	-4.99363156075337	0	0	0	0	0	0	0	0	1.041576515481962e-40	0	0	0	0	0	0	0	7.666217674750695e-42	0	0
37.56666666666666	-28.06795908348803	-46.59906546012459	-60.11531260700525	0	0.93	0	44.31484797771704	-9.973922677274997	1.119595753893104e-11	60.27962221299347	1.052077879475047	-4.993635533395205	0	0	44.31484797770933	-9.973922677275327	3.441689876337695e-15	60.27962221299688	1.052077879475106	-4.993635526678574	0	0	0	0	0	0	0	0	0	5.971399830552668e-40	0	0	0	0	0	3.009786736053069e-39	0	0	0
37.58333333333334	-28.07985186454185	-46.59569081352206	-60.20212969266878	0	0.93	0	44.31492957082058	-9.973933277955096	1.119155212379933e-11	60.27959574408409	1.052077417505429	-4.993638888294491	0	0	44.31492957081288	-9.973933277955428	3.4408087714063e-15	60.2795957440875	1.052077417505488	-4.993638881581403	0	0	0	0	0	0	0	0	0	0	0	0	0	0	0	2.104714535737113e-38	0	0	0
37.6	-28.07611479660134	-46.62526074803897	-60.28589431393431	0	0.93	0	44.31502306259909	-9.97394547466395	1.118645940887421e-11	60.27956549310274	1.052076889526202	-4.993642752071045	0	0	44.31502306259139	-9.973945474664282	3.438829670853797e-15	60.27956549310615	1.052076889526262	-4.993642745362036	0	0	1.724182147675843e-34	4.310455369189608e-34	0	0	2.586273221513765e-34	-9.483001812217137e-34	0	0	-1.508659379216363e-34	-2.155227684594804e-35	1.077613842297402e-34	1.077613842297402e-34	8.082103817230515e-35	1.013767139352089e-38	0	0	0
37.61666666666667	-28.05909289451479	-46.6869077345828	-60.36765368744172	0	0.93	0	44.31511688846337	-9.973957725908903	1.118134010702773e-11	60.27953515150749	1.052076359965465	-4.993646633878916	0	0	44.31511688845567	-9.973957725909234	3.437562997585425e-15	60.27953515151088	1.052076359965524	-4.993646627174005	0	0	-3.408365150057432e-12	9.31092845527802e-13	-2.856879924857179e-12	-2.650275794974055e-12	6.089254041783291e-13	-4.500790542148604e-13	2.909042248997206e-07	2.909042254505936e-07	-1.590667885438629e-12	-1.046752027894955e-13	-2.882656564026249e-13	2.22317458515453e-13	1.227054171407146e-12	2.909043288328e-07	2.909043407240609e-07	0	3.849205746211661e-38
37.63333333333333	-28.01109799475706	-46.7718768787785	-60.42707367023267	0	0.93	0	44.31520702931244	-9.973969489806613	1.117642526876736e-11	60.27950599428817	1.052075851075987	-4.993650360670252	0	0	44.31520702930474	-9.973969489806944	3.436215856344094e-15	60.27950599429156	1.052075851076046	-4.993650353969273	0	0	0	0	0	0	0	0	0	3.139405325461701e-42	0	0	0	0	0	3.246815013597847e-39	0	0	0
37.65	-27.93324160306396	-46.85262760421855	-60.45110851567375	0	0.93	0	44.31529971887723	-9.973981580516361	1.117137311007968e-11	60.27947601275059	1.052075327799441	-4.993654190197509	0	0	44.31529971886955	-9.973981580516693	3.435031719802373e-15	60.27947601275399	1.052075327799501	-4.99365418350075	0	0	0	0	0	0	0	0	0	0	0	0	0	0	0	0	0	0	0
37.66666666666666	-27.83281974637983	-46.91172921787694	-60.44075292966127	0	0.93	0	44.31539836042221	-9.973994440914298	1.116600720646154e-11	60.27944410920542	1.052074770977535	-4.993658262487757	5.075383223606848e-16	8.45390882802997e-24	44.31539836041451	-9.973994440914629	3.433865008847981e-15	60.27944410920882	1.052074770977594	-4.993658255795089	8.404159310195592e-21	1.210666276219416e-22	-4.431516081549508e-26	4.426478233147018e-22	8.573377060757634e-25	-3.216924664220123e-15	-1.081698997234151e-16	4.228164214958064e-15	0	0	-1.510107487415158e-22	-1.982221051978627e-23	6.479546568298036e-14	6.946033749927858e-15	2.332766641664231e-14	0	3.206596009591674e-14	2.208509555946023e-22	-5.467560110720323e-24
37.68333333333333	-27.72435447603039	-46.94856438421287	-60.41101073254276	0	0.93	0	44.31549268512523	-9.974006699892829	1.116090940225999e-11	60.27941355593714	1.052074237722406	-4.993662140890231	7.028801233818479e-51	2.852420090134998e-58	44.31549268511753	-9.97400669989316	3.432896089606331e-15	60.27941355594054	1.052074237722465	-4.993662134201656	-1.116819627423366e-55	-8.72570649858026e-58	-4.741500906108568e-34	0	0	-2.637301868110079e-34	1.831943531905584e-34	8.620910738379216e-35	0	0	0	1.318585685719009e-34	0	1.077613842297402e-35	0	1.263796937880285e-39	6.722936104663065e-39	-4.363033891675676e-58	0
37.7	-27.61476704925931	-46.96520743115244	-60.35866631645633	0	0.93	0	44.31557061136492	-9.974016735760705	1.115677443211404e-11	60.27938819087762	1.052073795018603	-4.993665308316566	0	0	44.31557061135722	-9.974016735761037	3.432714985581232e-15	60.27938819088101	1.052073795018662	-4.993665301631334	0	0	0	0	0	0	0	0	0	5.908510736179817e-39	0	0	0	0	0	5.879502913236767e-39	0	0	0
37.71666666666667	-27.50547690382178	-46.96174135811057	-60.2889907516658	0	0.93	0	44.31565850011572	-9.974028081161432	1.115208062876631e-11	60.27935962879484	1.052073296516217	-4.993668890938461	0	0	44.31565850010801	-9.974028081161766	3.431931828113156e-15	60.27935962879823	1.052073296516276	-4.993668884257009	0	0	0	0	0	0	0	0	0	4.979216024406401e-40	0	0	0	0	0	0	0	0	0
37.73333333333333	-27.40928248281271	-46.934641952413	-60.22270371749696	0	0.93	0	44.31575554873231	-9.974040652912352	1.114642229454201e-11	60.2793281550512	1.052072747195762	-4.993672864264784	-2.412391680215171e-15	-1.351492657041821e-17	44.31575554872462	-9.974040652912686	3.430578900627891e-15	60.27932815505459	1.052072747195822	-4.993672857587003	-1.858932893902133e-16	-1.615780559577746e-16	-8.05652401123923e-24	-1.133440871774359e-23	8.484395334442459e-23	1.612805470382233e-16	6.326223124300001e-16	-1.433020306985715e-15	0	0	3.020884634332007e-21	1.344345065514654e-23	8.782582116690775e-16	1.197848602866031e-14	-2.949159155928592e-14	3.827135822493341e-14	5.501221766503239e-14	-6.54403595175093e-22	-5.640615746524222e-23
37.75	-27.33092995762677	-46.89040094182267	-60.17310815760761	0	0.93	0	44.31584684174221	-9.974052473172071	1.114111050687905e-11	60.2792985376782	1.052072230275088	-4.993676599638479	0	0	44.31584684173452	-9.974052473172405	3.428979887690459e-15	60.2792985376816	1.052072230275147	-4.993676592964636	0	0	0	0	0	0	0	0	5.386264294464371e-39	0	0	0	0	0	0	1.442152874001913e-39	4.394138759395881e-40	0	0
37.76666666666667	-27.26848699711038	-46.83983554277605	-60.12371127604424	0	0.93	0	44.3159347389529	-9.974063837257855	1.113600803955064e-11	60.27927000004022	1.052071732199344	-4.993680189485699	0	0	44.3159347389452	-9.974063837258189	3.427702284566899e-15	60.27927000004362	1.052071732199404	-4.993680182814897	0	0	0	0	0	0	0	0	0	0	0	0	0	0	0	0	0	0	0
